<svg xmlns="http://www.w3.org/2000/svg" width="1200" height="820" viewBox="0 0 1200 820">
<rect width="100%" height="100%" fill="#fffdf7"/>
<text x="110" y="34" font-size="26" font-family="monospace" fill="#1f2937">Roofline: ring_gemm_bias [baseline]</text>
<text x="110" y="58" font-size="14" font-family="monospace" fill="#4b5563">BW=32.00 B/cycle, general_peak=16.00 ops/cycle, special_peak=256.00 ops/cycle</text>
<line x1="110" y1="730" x2="1160" y2="730" stroke="#111827" stroke-width="1.5"/>
<line x1="110" y1="70" x2="110" y2="730" stroke="#111827" stroke-width="1.5"/>
<line x1="110.00" y1="70" x2="110.00" y2="730" stroke="#e5e7eb" stroke-width="1"/>
<text x="110.00" y="754" text-anchor="middle" font-size="12" font-family="monospace" fill="#374151">0.2</text>
<line x1="318.92" y1="70" x2="318.92" y2="730" stroke="#e5e7eb" stroke-width="1"/>
<text x="318.92" y="754" text-anchor="middle" font-size="12" font-family="monospace" fill="#374151">0.5</text>
<line x1="476.96" y1="70" x2="476.96" y2="730" stroke="#e5e7eb" stroke-width="1"/>
<text x="476.96" y="754" text-anchor="middle" font-size="12" font-family="monospace" fill="#374151">1</text>
<line x1="635.00" y1="70" x2="635.00" y2="730" stroke="#e5e7eb" stroke-width="1"/>
<text x="635.00" y="754" text-anchor="middle" font-size="12" font-family="monospace" fill="#374151">2</text>
<line x1="843.92" y1="70" x2="843.92" y2="730" stroke="#e5e7eb" stroke-width="1"/>
<text x="843.92" y="754" text-anchor="middle" font-size="12" font-family="monospace" fill="#374151">5</text>
<line x1="1001.96" y1="70" x2="1001.96" y2="730" stroke="#e5e7eb" stroke-width="1"/>
<text x="1001.96" y="754" text-anchor="middle" font-size="12" font-family="monospace" fill="#374151">10</text>
<line x1="1160.00" y1="70" x2="1160.00" y2="730" stroke="#e5e7eb" stroke-width="1"/>
<text x="1160.00" y="754" text-anchor="middle" font-size="12" font-family="monospace" fill="#374151">20</text>
<line x1="110" y1="730.00" x2="1160" y2="730.00" stroke="#e5e7eb" stroke-width="1"/>
<text x="98" y="734.00" text-anchor="end" font-size="12" font-family="monospace" fill="#374151">10</text>
<line x1="110" y1="613.06" x2="1160" y2="613.06" stroke="#e5e7eb" stroke-width="1"/>
<text x="98" y="617.06" text-anchor="end" font-size="12" font-family="monospace" fill="#374151">20</text>
<line x1="110" y1="458.47" x2="1160" y2="458.47" stroke="#e5e7eb" stroke-width="1"/>
<text x="98" y="462.47" text-anchor="end" font-size="12" font-family="monospace" fill="#374151">50</text>
<line x1="110" y1="341.53" x2="1160" y2="341.53" stroke="#e5e7eb" stroke-width="1"/>
<text x="98" y="345.53" text-anchor="end" font-size="12" font-family="monospace" fill="#374151">100</text>
<line x1="110" y1="224.59" x2="1160" y2="224.59" stroke="#e5e7eb" stroke-width="1"/>
<text x="98" y="228.59" text-anchor="end" font-size="12" font-family="monospace" fill="#374151">200</text>
<line x1="110" y1="70.00" x2="1160" y2="70.00" stroke="#e5e7eb" stroke-width="1"/>
<text x="98" y="74.00" text-anchor="end" font-size="12" font-family="monospace" fill="#374151">500</text>
<text x="635.00" y="796" text-anchor="middle" font-size="15" font-family="monospace" fill="#111827">Arithmetic intensity (ops/byte)</text>
<text x="26" y="400.00" text-anchor="middle" font-size="15" font-family="monospace" fill="#111827" transform="rotate(-90 26 400.00)">Performance (ops/cycle)</text>
<line x1="110.00" y1="805.29" x2="318.92" y2="650.71" stroke="#2563eb" stroke-width="3"/>
<line x1="318.92" y1="650.71" x2="1160.00" y2="650.71" stroke="#2563eb" stroke-width="3"/>
<text x="1154.00" y="642.71" text-anchor="end" font-size="12" font-family="monospace" fill="#2563eb">general roofline</text>
<line x1="110.00" y1="805.29" x2="951.08" y2="182.94" stroke="#dc2626" stroke-width="3"/>
<line x1="951.08" y1="182.94" x2="1160.00" y2="182.94" stroke="#dc2626" stroke-width="3"/>
<text x="1154.00" y="174.94" text-anchor="end" font-size="12" font-family="monospace" fill="#dc2626">special roofline</text>
<line x1="1036.51" y1="182.94" x2="1036.51" y2="358.80" stroke="#dc2626" stroke-opacity="0.35" stroke-width="1.5"/>
<circle cx="1036.51" cy="182.94" r="5.5" fill="#ffffff" stroke="#dc2626" stroke-width="2"/>
<circle cx="1036.51" cy="358.80" r="4.5" fill="#dc2626" fill-opacity="0.85"/>
<line x1="1036.51" y1="358.80" x2="1036.51" y2="416.82" stroke="#047857" stroke-opacity="0.45" stroke-width="1.5" stroke-dasharray="4 3"/>
<rect x="1032.01" y="412.32" width="9" height="9" fill="#ecfdf5" stroke="#047857" stroke-width="2"/>
<line x1="1036.51" y1="416.82" x2="1031.51" y2="404.82" stroke="#6b7280" stroke-opacity="0.65" stroke-width="1"/>
<text x="1028.51" y="408.82" text-anchor="end" font-size="11" font-family="monospace" fill="#111827">ring_gemm [U=25.0%(M)]</text>
<rect x="870" y="564" width="268" height="146" rx="8" fill="#ffffff" stroke="#d1d5db"/>
<line x1="886" y1="588" x2="914" y2="588" stroke="#2563eb" stroke-width="3"/>
<text x="924" y="592" font-size="12" font-family="monospace" fill="#111827">general roofline</text>
<line x1="886" y1="610" x2="914" y2="610" stroke="#dc2626" stroke-width="3"/>
<text x="924" y="614" font-size="12" font-family="monospace" fill="#111827">special roofline</text>
<circle cx="900" cy="633" r="5.5" fill="#ffffff" stroke="#111827" stroke-width="2"/>
<text x="924" y="637" font-size="12" font-family="monospace" fill="#111827">theoretical limit at this AI</text>
<circle cx="900" cy="655" r="4.5" fill="#111827"/>
<text x="924" y="659" font-size="12" font-family="monospace" fill="#111827">analytical achieved performance</text>
<rect x="895.5" y="671.5" width="9" height="9" fill="#ecfdf5" stroke="#047857" stroke-width="2"/>
<text x="924" y="681" font-size="12" font-family="monospace" fill="#111827">hardware measured performance</text>
<text x="886" y="702" font-size="11" font-family="monospace" fill="#4b5563">U=utilization, M=measured, A=analytical</text>
</svg>
